<?xml version="1.0" encoding="UTF-8" standalone="no"?>
<!-- Created with Inkscape (http://www.inkscape.org/) -->

<svg
   xmlns:osb="http://www.openswatchbook.org/uri/2009/osb"
   xmlns:dc="http://purl.org/dc/elements/1.1/"
   xmlns:cc="http://creativecommons.org/ns#"
   xmlns:rdf="http://www.w3.org/1999/02/22-rdf-syntax-ns#"
   xmlns:svg="http://www.w3.org/2000/svg"
   xmlns="http://www.w3.org/2000/svg"
   xmlns:sodipodi="http://sodipodi.sourceforge.net/DTD/sodipodi-0.dtd"
   xmlns:inkscape="http://www.inkscape.org/namespaces/inkscape"
   width="210mm"
   height="297mm"
   viewBox="0 0 744.09448819 1052.3622047"
   id="svg2"
   version="1.1"
   inkscape:version="0.91 r13725"
   sodipodi:docname="delete.svg">
  <defs
     id="defs4">
    <linearGradient
       id="linearGradient4192"
       osb:paint="solid">
      <stop
         style="stop-color:#000000;stop-opacity:1;"
         offset="0"
         id="stop4194" />
    </linearGradient>
  </defs>
  <sodipodi:namedview
     id="base"
     pagecolor="#ffffff"
     bordercolor="#666666"
     borderopacity="1.0"
     inkscape:pageopacity="0.0"
     inkscape:pageshadow="2"
     inkscape:zoom="22.627417"
     inkscape:cx="15.898768"
     inkscape:cy="10.843901"
     inkscape:document-units="px"
     inkscape:current-layer="layer2"
     showgrid="false"
     inkscape:window-width="1280"
     inkscape:window-height="711"
     inkscape:window-x="0"
     inkscape:window-y="1"
     inkscape:window-maximized="1" />
  <metadata
     id="metadata7">
    <rdf:RDF>
      <cc:Work
         rdf:about="">
        <dc:format>image/svg+xml</dc:format>
        <dc:type
           rdf:resource="http://purl.org/dc/dcmitype/StillImage" />
        <dc:title></dc:title>
      </cc:Work>
    </rdf:RDF>
  </metadata>
  <g
     inkscape:label="Region"
     inkscape:groupmode="layer"
     id="layer1"
     style="opacity:0.25">
    <rect
       style="opacity:1;fill:#000000;fill-opacity:0.50196081;fill-rule:nonzero;stroke:none;stroke-width:150;stroke-miterlimit:4;stroke-dasharray:none;stroke-opacity:1"
       id="rect3336"
       width="24"
       height="24"
       x="0"
       y="1028.3622" />
    <rect
       style="opacity:1;fill:#000000;fill-opacity:1;fill-rule:nonzero;stroke:#000000;stroke-width:0;stroke-linejoin:miter;stroke-miterlimit:4;stroke-dasharray:none;stroke-opacity:0.50196078"
       id="rect4242"
       width="19.99999"
       height="19.999989"
       x="2.00002"
       y="1030.3623" />
  </g>
  <g
     inkscape:groupmode="layer"
     id="layer2"
     inkscape:label="Content">
    <circle
       style="opacity:1;fill:#000000;fill-opacity:1;fill-rule:nonzero;stroke:none;stroke-width:150;stroke-miterlimit:4;stroke-dasharray:none;stroke-opacity:1"
       id="path3338"
       cx="33.699795"
       cy="-1041.8627"
       r="3.499841"
       transform="scale(1,-1)" />
    <g
       id="g4276"
       transform="matrix(0.98990451,-0.98990451,0.98990451,0.98990451,-1037.7354,41.771824)">
      <path
         id="circle4200"
         d="m 32.5,1047.3613 a 2.5,2.5 0 0 0 -0.910156,0.1758 l 3.236328,3.2383 A 2.5,2.5 0 0 0 35,1049.8613 a 2.5,2.5 0 0 0 -2.5,-2.5 z m -1.765625,0.7344 A 2.5,2.5 0 0 0 30,1049.8613 a 2.5,2.5 0 0 0 2.5,2.5 2.5,2.5 0 0 0 1.765625,-0.7324 l -3.53125,-3.5332 z"
         style="opacity:1;fill:#000000;fill-opacity:1;fill-rule:nonzero;stroke:none;stroke-width:150;stroke-miterlimit:4;stroke-dasharray:none;stroke-opacity:1"
         inkscape:connector-curvature="0" />
      <rect
         transform="matrix(0.70710678,0.70710678,-0.70710678,0.70710678,0,0)"
         y="719.38367"
         x="762.34564"
         height="0.99999583"
         width="5.9999909"
         id="rect4202"
         style="opacity:1;fill:#000000;fill-opacity:1;fill-rule:nonzero;stroke:#000000;stroke-width:0;stroke-linejoin:miter;stroke-miterlimit:4;stroke-dasharray:none;stroke-opacity:1" />
      <rect
         transform="matrix(0.70710678,0.70710678,-0.70710678,0.70710678,0,0)"
         style="opacity:1;fill:#000000;fill-opacity:0;fill-rule:nonzero;stroke:#000000;stroke-width:0;stroke-linejoin:miter;stroke-miterlimit:4;stroke-dasharray:none;stroke-opacity:0.50196078"
         id="rect4204"
         width="5.9999909"
         height="0.99999583"
         x="762.34564"
         y="718.38367" />
    </g>
    <g
       id="g4268"
       transform="matrix(0.98990451,-0.98990451,0.98990451,0.98990451,-1027.8364,37.670623)">
      <path
         id="circle4250"
         d="m 32.5,1037.3613 a 2.5,2.5 0 0 0 -0.912109,0.1739 l 0.828125,0.83 a 1.5,1.5 0 0 1 0.08398,0 1.5,1.5 0 0 1 1.5,1.5 1.5,1.5 0 0 1 -0.0039,0.082 l 0.830078,0.832 A 2.5,2.5 0 0 0 35,1039.8613 a 2.5,2.5 0 0 0 -2.5,-2.5 z m -1.767578,0.7325 A 2.5,2.5 0 0 0 30,1039.8613 a 2.5,2.5 0 0 0 2.5,2.5 2.5,2.5 0 0 0 1.765625,-0.7324 l -0.707031,-0.707 a 1.5,1.5 0 0 1 -1.058594,0.4394 1.5,1.5 0 0 1 -1.5,-1.5 1.5,1.5 0 0 1 0.439453,-1.0605 l -0.707031,-0.707 z"
         style="opacity:1;fill:#000000;fill-opacity:1;fill-rule:nonzero;stroke:none;stroke-width:150;stroke-miterlimit:4;stroke-dasharray:none;stroke-opacity:1"
         inkscape:connector-curvature="0" />
      <rect
         transform="matrix(0.70710678,0.70710678,-0.70710678,0.70710678,0,0)"
         style="opacity:1;fill:#000000;fill-opacity:1;fill-rule:nonzero;stroke:#000000;stroke-width:0;stroke-linejoin:miter;stroke-miterlimit:4;stroke-dasharray:none;stroke-opacity:1"
         id="rect4206"
         width="5.9999909"
         height="0.99999583"
         x="755.2746"
         y="712.31262" />
      <rect
         transform="matrix(0.70710678,0.70710678,-0.70710678,0.70710678,0,0)"
         y="711.31262"
         x="755.2746"
         height="0.99999583"
         width="5.9999909"
         id="rect4208"
         style="opacity:1;fill:#000000;fill-opacity:0;fill-rule:nonzero;stroke:#000000;stroke-width:0;stroke-linejoin:miter;stroke-miterlimit:4;stroke-dasharray:none;stroke-opacity:0.50196078" />
    </g>
    <path
       style="opacity:1;fill:#000000;fill-opacity:1;fill-rule:nonzero;stroke:none;stroke-width:150;stroke-miterlimit:4;stroke-dasharray:none;stroke-opacity:1"
       d="m 33.6998,1024.3622 a 3.4998409,3.4998409 0 0 0 -3.499843,3.4999 3.4998409,3.4998409 0 0 0 3.499843,3.4998 3.4998409,3.4998409 0 0 0 3.49984,-3.4998 3.4998409,3.4998409 0 0 0 -3.49984,-3.4999 z m 0,1.4 a 2.0999046,2.0999046 0 0 1 2.099904,2.0999 2.0999046,2.0999046 0 0 1 -2.099904,2.0998 2.0999046,2.0999046 0 0 1 -2.099906,-2.0998 2.0999046,2.0999046 0 0 1 2.099906,-2.0999 z"
       id="circle4281"
       inkscape:connector-curvature="0" />
    <circle
       transform="scale(1,-1)"
       r="3.499841"
       cy="-1046.1624"
       cx="6.199841"
       id="circle4307"
       style="opacity:1;fill:#000000;fill-opacity:1;fill-rule:nonzero;stroke:none;stroke-width:150;stroke-miterlimit:4;stroke-dasharray:none;stroke-opacity:1" />
    <circle
       transform="scale(1,-1)"
       r="4.1999998"
       cy="-1046.1622"
       cx="6.1999998"
       id="circle4327"
       style="opacity:1;fill:#000000;fill-opacity:0.50196078;fill-rule:nonzero;stroke:none;stroke-width:150;stroke-miterlimit:4;stroke-dasharray:none;stroke-opacity:1" />
    <circle
       style="opacity:1;fill:#000000;fill-opacity:0.50196078;fill-rule:nonzero;stroke:none;stroke-width:150;stroke-miterlimit:4;stroke-dasharray:none;stroke-opacity:1"
       id="circle4329"
       cx="17.799999"
       cy="-1046.1622"
       r="4.1999998"
       transform="scale(1,-1)" />
    <circle
       transform="scale(1,-1)"
       r="4.1999998"
       cy="-1036.1622"
       cx="12.000007"
       id="circle4344"
       style="opacity:1;fill:#000000;fill-opacity:0.50196078;fill-rule:nonzero;stroke:none;stroke-width:150;stroke-miterlimit:4;stroke-dasharray:none;stroke-opacity:1" />
    <g
       transform="matrix(0.98990451,-0.98990451,0.98990451,0.98990451,-1043.7364,48.97087)"
       id="g4359">
      <path
         inkscape:connector-curvature="0"
         style="opacity:1;fill:#000000;fill-opacity:1;fill-rule:nonzero;stroke:none;stroke-width:150;stroke-miterlimit:4;stroke-dasharray:none;stroke-opacity:1"
         d="m 32.5,1037.3613 a 2.5,2.5 0 0 0 -0.912109,0.1739 l 0.828125,0.83 a 1.5,1.5 0 0 1 0.08398,0 1.5,1.5 0 0 1 1.5,1.5 1.5,1.5 0 0 1 -0.0039,0.082 l 0.830078,0.832 A 2.5,2.5 0 0 0 35,1039.8613 a 2.5,2.5 0 0 0 -2.5,-2.5 z m -1.767578,0.7325 A 2.5,2.5 0 0 0 30,1039.8613 a 2.5,2.5 0 0 0 2.5,2.5 2.5,2.5 0 0 0 1.765625,-0.7324 l -0.707031,-0.707 a 1.5,1.5 0 0 1 -1.058594,0.4394 1.5,1.5 0 0 1 -1.5,-1.5 1.5,1.5 0 0 1 0.439453,-1.0605 l -0.707031,-0.707 z"
         id="path4361" />
      <rect
         y="712.31262"
         x="755.2746"
         height="0.99999583"
         width="5.9999909"
         id="rect4363"
         style="opacity:1;fill:#000000;fill-opacity:1;fill-rule:nonzero;stroke:#000000;stroke-width:0;stroke-linejoin:miter;stroke-miterlimit:4;stroke-dasharray:none;stroke-opacity:1"
         transform="matrix(0.70710678,0.70710678,-0.70710678,0.70710678,0,0)" />
      <rect
         style="opacity:1;fill:#000000;fill-opacity:0;fill-rule:nonzero;stroke:#000000;stroke-width:0;stroke-linejoin:miter;stroke-miterlimit:4;stroke-dasharray:none;stroke-opacity:0.50196078"
         id="rect4365"
         width="5.9999909"
         height="0.99999583"
         x="755.2746"
         y="711.31262"
         transform="matrix(0.70710678,0.70710678,-0.70710678,0.70710678,0,0)" />
    </g>
    <g
       id="g4367"
       transform="matrix(0.98990451,-0.98990451,0.98990451,0.98990451,-1049.5364,38.97087)">
      <path
         id="path4369"
         d="m 32.5,1037.3613 a 2.5,2.5 0 0 0 -0.912109,0.1739 l 0.828125,0.83 a 1.5,1.5 0 0 1 0.08398,0 1.5,1.5 0 0 1 1.5,1.5 1.5,1.5 0 0 1 -0.0039,0.082 l 0.830078,0.832 A 2.5,2.5 0 0 0 35,1039.8613 a 2.5,2.5 0 0 0 -2.5,-2.5 z m -1.767578,0.7325 A 2.5,2.5 0 0 0 30,1039.8613 a 2.5,2.5 0 0 0 2.5,2.5 2.5,2.5 0 0 0 1.765625,-0.7324 l -0.707031,-0.707 a 1.5,1.5 0 0 1 -1.058594,0.4394 1.5,1.5 0 0 1 -1.5,-1.5 1.5,1.5 0 0 1 0.439453,-1.0605 l -0.707031,-0.707 z"
         style="opacity:1;fill:#000000;fill-opacity:1;fill-rule:nonzero;stroke:none;stroke-width:150;stroke-miterlimit:4;stroke-dasharray:none;stroke-opacity:1"
         inkscape:connector-curvature="0" />
      <rect
         transform="matrix(0.70710678,0.70710678,-0.70710678,0.70710678,0,0)"
         style="opacity:1;fill:#000000;fill-opacity:1;fill-rule:nonzero;stroke:#000000;stroke-width:0;stroke-linejoin:miter;stroke-miterlimit:4;stroke-dasharray:none;stroke-opacity:1"
         id="rect4371"
         width="5.9999909"
         height="0.99999583"
         x="755.2746"
         y="712.31262" />
      <rect
         transform="matrix(0.70710678,0.70710678,-0.70710678,0.70710678,0,0)"
         y="711.31262"
         x="755.2746"
         height="0.99999583"
         width="5.9999909"
         id="rect4373"
         style="opacity:1;fill:#000000;fill-opacity:0;fill-rule:nonzero;stroke:#000000;stroke-width:0;stroke-linejoin:miter;stroke-miterlimit:4;stroke-dasharray:none;stroke-opacity:0.50196078" />
    </g>
    <rect
       style="opacity:1;fill:#000000;fill-opacity:1;fill-rule:nonzero;stroke:none;stroke-width:2.79999995;stroke-linejoin:miter;stroke-miterlimit:4;stroke-dasharray:none;stroke-opacity:0.50196078"
       id="rect4415"
       width="2.8"
       height="6"
       x="10.6"
       y="1030.3622" />
  </g>
</svg>
