<?xml version="1.0" encoding="UTF-8" standalone="no"?>
<!-- Created with Inkscape (http://www.inkscape.org/) -->

<svg
   xmlns:osb="http://www.openswatchbook.org/uri/2009/osb"
   xmlns:dc="http://purl.org/dc/elements/1.1/"
   xmlns:cc="http://creativecommons.org/ns#"
   xmlns:rdf="http://www.w3.org/1999/02/22-rdf-syntax-ns#"
   xmlns:svg="http://www.w3.org/2000/svg"
   xmlns="http://www.w3.org/2000/svg"
   xmlns:sodipodi="http://sodipodi.sourceforge.net/DTD/sodipodi-0.dtd"
   xmlns:inkscape="http://www.inkscape.org/namespaces/inkscape"
   width="210mm"
   height="297mm"
   viewBox="0 0 744.09448819 1052.3622047"
   id="svg2"
   version="1.1"
   inkscape:version="0.91 r13725"
   sodipodi:docname="delete_a+b_wBorder.svg">
  <defs
     id="defs4">
    <linearGradient
       id="linearGradient4192"
       osb:paint="solid">
      <stop
         style="stop-color:#000000;stop-opacity:1;"
         offset="0"
         id="stop4194" />
    </linearGradient>
  </defs>
  <sodipodi:namedview
     id="base"
     pagecolor="#ffffff"
     bordercolor="#666666"
     borderopacity="1.0"
     inkscape:pageopacity="0.0"
     inkscape:pageshadow="2"
     inkscape:zoom="16"
     inkscape:cx="1.055606"
     inkscape:cy="9.5417563"
     inkscape:document-units="px"
     inkscape:current-layer="layer2"
     showgrid="false"
     inkscape:window-width="1280"
     inkscape:window-height="711"
     inkscape:window-x="0"
     inkscape:window-y="1"
     inkscape:window-maximized="1" />
  <metadata
     id="metadata7">
    <rdf:RDF>
      <cc:Work
         rdf:about="">
        <dc:format>image/svg+xml</dc:format>
        <dc:type
           rdf:resource="http://purl.org/dc/dcmitype/StillImage" />
        <dc:title></dc:title>
      </cc:Work>
    </rdf:RDF>
  </metadata>
  <g
     inkscape:label="Region"
     inkscape:groupmode="layer"
     id="layer1"
     style="opacity:0.25">
    <path
       style="opacity:1;fill:#000000;fill-opacity:0.50196081;fill-rule:nonzero;stroke:none;stroke-width:150;stroke-miterlimit:4;stroke-dasharray:none;stroke-opacity:1"
       d="M 0 1028.3613 L 0 1052.3613 L 24 1052.3613 L 24 1028.3613 L 0 1028.3613 z M 2 1030.3633 L 22 1030.3633 L 22 1050.3613 L 2 1050.3613 L 2 1030.3633 z "
       id="rect3336" />
  </g>
  <g
     inkscape:groupmode="layer"
     id="layer2"
     inkscape:label="Content">
    <path
       style="font-style:normal;font-weight:normal;font-size:9.12249374px;line-height:125%;font-family:Sans;letter-spacing:0px;word-spacing:0px;fill:#000000;fill-opacity:1;stroke:none;stroke-width:1px;stroke-linecap:butt;stroke-linejoin:miter;stroke-opacity:1"
       d="M 2.9375 1035.3613 C 2.7559142 1035.3613 2.5964156 1035.4269 2.453125 1035.5156 L 4.2949219 1038.707 L 4.6582031 1039.3379 L 5.3769531 1040.584 L 5.3789062 1040.584 L 5.7480469 1041.2246 L 6.2832031 1042.1504 L 7.1953125 1043.7324 L 8.046875 1045.209 C 8.3134268 1045.044 8.5 1044.7616 8.5 1044.4238 L 8.5 1036.2988 C 8.5 1035.7795 8.081875 1035.3613 7.5625 1035.3613 L 2.9375 1035.3613 z M 8.046875 1045.209 C 7.983874 1045.248 7.9154703 1045.2787 7.8457031 1045.3047 C 7.9185973 1045.2813 7.9830648 1045.2485 8.046875 1045.209 z M 7.8457031 1045.3047 C 7.754908 1045.3338 7.663222 1045.3613 7.5625 1045.3613 C 7.6642474 1045.3613 7.7567907 1045.3379 7.8457031 1045.3047 z M 2.4511719 1035.5156 C 2.3461901 1035.5808 2.2592006 1035.6634 2.1875 1035.7637 C 2.2607714 1035.6671 2.3469596 1035.5803 2.4511719 1035.5156 z M 2.1875 1035.7637 C 2.1594259 1035.8007 2.1335626 1035.8379 2.1113281 1035.8789 C 2.1325685 1035.8372 2.1604948 1035.8014 2.1875 1035.7637 z M 2.1113281 1035.8789 C 2.0929162 1035.915 2.0761797 1035.9496 2.0625 1035.9883 C 2.0767207 1035.9508 2.0923862 1035.9138 2.1113281 1035.8789 z M 2.0625 1035.9883 C 2.0258391 1036.085 2 1036.1876 2 1036.2988 C 2 1036.1885 2.0277831 1036.0865 2.0625 1035.9883 z M 2 1036.7324 L 2 1044.4238 C 2 1044.9432 2.418125 1045.3613 2.9375 1045.3613 L 6.9824219 1045.3613 L 5.90625 1043.4961 C 5.8363998 1043.5481 5.7721352 1043.6084 5.6953125 1043.6484 C 5.4161737 1043.791 5.0737823 1043.8613 4.6699219 1043.8613 C 4.1591573 1043.8613 3.752114 1043.7206 3.4492188 1043.4355 C 3.1492929 1043.1475 3 1042.7625 3 1042.2812 C 3 1041.7202 3.1863821 1041.2968 3.5605469 1041.0117 C 3.7527847 1040.8664 3.9952901 1040.7587 4.2832031 1040.6875 L 3.6523438 1039.5938 C 3.5558792 1039.6354 3.4587756 1039.6773 3.3652344 1039.7285 L 3.3652344 1039.0977 L 2 1036.7324 z M 16.537109 1036.8027 L 16.537109 1043.7324 L 17.361328 1043.7324 L 17.361328 1042.9844 C 17.533563 1043.2813 17.750397 1043.5029 18.011719 1043.6484 C 18.27601 1043.791 18.589822 1043.8613 18.955078 1043.8613 C 19.560869 1043.8613 20.052553 1043.6217 20.429688 1043.1406 C 20.809791 1042.6596 21 1042.0262 21 1041.2422 C 21 1040.4582 20.809791 1039.8268 20.429688 1039.3457 C 20.052553 1038.8646 19.560869 1038.623 18.955078 1038.623 C 18.589822 1038.623 18.27601 1038.6963 18.011719 1038.8418 C 17.750397 1038.9843 17.533563 1039.205 17.361328 1039.502 L 17.361328 1036.8027 L 16.537109 1036.8027 z M 11.511719 1038.0137 L 11.511719 1040.4941 L 9.03125 1040.4941 L 9.03125 1041.252 L 11.511719 1041.252 L 11.511719 1043.7324 L 12.259766 1043.7324 L 12.259766 1041.252 L 14.742188 1041.252 L 14.742188 1040.4941 L 12.259766 1040.4941 L 12.259766 1038.0137 L 11.511719 1038.0137 z M 5.4140625 1038.6465 C 5.9585883 1038.7003 6.3850047 1038.8762 6.6796875 1039.1855 C 7.0360349 1039.5597 7.2128906 1040.1265 7.2128906 1040.8867 L 7.2128906 1041.7637 L 6.3789062 1040.3184 C 6.3429704 1040.0313 6.2257443 1039.8002 6.0195312 1039.6309 C 6.0007196 1039.615 5.9770053 1039.6045 5.9570312 1039.5898 L 5.4140625 1038.6465 z M 18.755859 1039.3105 C 19.189415 1039.3105 19.528917 1039.4817 19.775391 1039.8262 C 20.024834 1040.1677 20.148438 1040.6394 20.148438 1041.2422 C 20.148438 1041.845 20.024834 1042.3196 19.775391 1042.6641 C 19.528917 1043.0056 19.189415 1043.1758 18.755859 1043.1758 C 18.322303 1043.1758 17.979912 1043.0056 17.730469 1042.6641 C 17.483995 1042.3196 17.361328 1041.845 17.361328 1041.2422 C 17.361328 1040.6394 17.483995 1040.1677 17.730469 1039.8262 C 17.979912 1039.4817 18.322303 1039.3105 18.755859 1039.3105 z M 4.640625 1041.3047 C 4.4614174 1041.3416 4.3104635 1041.3895 4.203125 1041.4531 C 3.9477427 1041.6046 3.8203125 1041.8613 3.8203125 1042.2266 C 3.8203125 1042.5176 3.9154168 1042.7496 4.1054688 1042.9219 C 4.2984903 1043.0911 4.5590505 1043.1758 4.8886719 1043.1758 C 5.1654541 1043.1758 5.4037241 1043.1093 5.6132812 1042.9902 L 4.640625 1041.3047 z "
       id="text3349" />
  </g>
</svg>
