<?xml version="1.0" encoding="UTF-8" standalone="no"?>
<!-- Created with Inkscape (http://www.inkscape.org/) -->

<svg
   xmlns:osb="http://www.openswatchbook.org/uri/2009/osb"
   xmlns:dc="http://purl.org/dc/elements/1.1/"
   xmlns:cc="http://creativecommons.org/ns#"
   xmlns:rdf="http://www.w3.org/1999/02/22-rdf-syntax-ns#"
   xmlns:svg="http://www.w3.org/2000/svg"
   xmlns="http://www.w3.org/2000/svg"
   xmlns:sodipodi="http://sodipodi.sourceforge.net/DTD/sodipodi-0.dtd"
   xmlns:inkscape="http://www.inkscape.org/namespaces/inkscape"
   width="24"
   height="24"
   viewBox="0 0 24 24"
   id="svg2"
   version="1.1"
   inkscape:version="0.91 r13725"
   sodipodi:docname="deleteParent_a+b.svg">
  <defs
     id="defs4">
    <marker
       inkscape:stockid="Arrow1Lstart"
       orient="auto"
       refY="0"
       refX="0"
       id="Arrow1Lstart"
       style="overflow:visible"
       inkscape:isstock="true">
      <path
         id="path4430"
         d="M 0,0 5,-5 -12.5,0 5,5 0,0 Z"
         style="fill-rule:evenodd;stroke:#000000;stroke-width:1pt"
         transform="matrix(0.8,0,0,0.8,10,0)"
         inkscape:connector-curvature="0" />
    </marker>
    <linearGradient
       id="linearGradient4192"
       osb:paint="solid">
      <stop
         style="stop-color:#000000;stop-opacity:1;"
         offset="0"
         id="stop4194" />
    </linearGradient>
  </defs>
  <sodipodi:namedview
     id="base"
     pagecolor="#ffffff"
     bordercolor="#666666"
     borderopacity="1.0"
     inkscape:pageopacity="0.0"
     inkscape:pageshadow="2"
     inkscape:zoom="16"
     inkscape:cx="0.180606"
     inkscape:cy="9.5417563"
     inkscape:document-units="px"
     inkscape:current-layer="layer2"
     showgrid="false"
     inkscape:window-width="1280"
     inkscape:window-height="711"
     inkscape:window-x="0"
     inkscape:window-y="1"
     inkscape:window-maximized="1"
     units="px" />
  <metadata
     id="metadata7">
    <rdf:RDF>
      <cc:Work
         rdf:about="">
        <dc:format>image/svg+xml</dc:format>
        <dc:type
           rdf:resource="http://purl.org/dc/dcmitype/StillImage" />
        <dc:title></dc:title>
      </cc:Work>
    </rdf:RDF>
  </metadata>
  <g
     inkscape:groupmode="layer"
     id="layer2"
     inkscape:label="Content"
     transform="translate(0,-1028.3622)">
    <path
       style="font-style:normal;font-weight:normal;font-size:9.12249374px;line-height:125%;font-family:Sans;letter-spacing:0px;word-spacing:0px;fill:#767676;fill-opacity:1;stroke:none;stroke-width:1px;stroke-linecap:butt;stroke-linejoin:miter;stroke-opacity:1"
       d="m 2.875,1035.3613 c -0.48475,0 -0.875,0.3903 -0.875,0.875 l 0,8.25 c 0,0.4848 0.39025,0.875 0.875,0.875 l 4.75,0 c 0.48475,0 0.875,-0.3902 0.875,-0.875 l 0,-8.25 c 0,-0.4847 -0.39025,-0.875 -0.875,-0.875 l -4.75,0 z m 6.1289062,1.25 -0.5,0.8672 3.0078128,1.7363 0,1.2793 -2.480469,0 0,0.7579 2.480469,0 0,2.4804 0.748047,0 0,-2.4804 2.482422,0 0,-0.1719 1.794921,1.0351 0,1.6172 0.824219,0 0,-0.748 c 0.172235,0.2969 0.389069,0.5185 0.650391,0.664 0.264291,0.1426 0.578103,0.2129 0.943359,0.2129 0.174145,0 0.335252,-0.026 0.490234,-0.066 l 2.050782,1.1836 0.5,-0.8672 -1.607422,-0.9277 -0.710938,-0.4102 -2.304687,-1.33 0,0 -0.835938,-0.4805 -4.277343,-2.4707 -0.748047,-0.4316 -2.5078128,-1.4473 z m 7.5332028,0.1914 0,3.0039 0.945313,0.545 c 0.06058,-0.1981 0.140812,-0.3768 0.248047,-0.5254 0.249443,-0.3445 0.591834,-0.5157 1.02539,-0.5157 0.433556,0 0.773058,0.1712 1.019532,0.5157 0.249443,0.3415 0.373047,0.8132 0.373047,1.416 0,0.2245 -0.02205,0.4266 -0.05664,0.6152 l 0.765625,0.4434 C 20.951742,1041.9854 21,1041.6327 21,1041.2422 c 0,-0.784 -0.190209,-1.4154 -0.570312,-1.8965 -0.377135,-0.4811 -0.868819,-0.7227 -1.47461,-0.7227 -0.365256,0 -0.679068,0.073 -0.943359,0.2188 -0.261322,0.1425 -0.478156,0.3632 -0.650391,0.6602 l 0,-2.6993 -0.824219,0 z M 5.0625,1038.623 c 0.7216035,0 1.2608401,0.1884 1.6171875,0.5625 0.3563474,0.3742 0.5332031,0.941 0.5332031,1.7012 l 0,2.8457 -0.8183594,0 0,-0.7558 c -0.1870823,0.3029 -0.4200799,0.5263 -0.6992187,0.6718 -0.2791388,0.1426 -0.6215302,0.2129 -1.0253906,0.2129 -0.5107646,0 -0.9178079,-0.1407 -1.2207031,-0.4258 C 3.1492929,1043.1475 3,1042.7625 3,1042.2812 c 0,-0.561 0.1863821,-0.9844 0.5605469,-1.2695 0.3771343,-0.2851 0.9382337,-0.4277 1.6835937,-0.4277 l 1.1503906,0 0,-0.08 c 0,-0.3771 -0.1255568,-0.6681 -0.375,-0.873 -0.2464736,-0.2079 -0.5926117,-0.3125 -1.0410156,-0.3125 -0.2850779,0 -0.5637542,0.035 -0.8339844,0.1035 -0.2702301,0.068 -0.5298536,0.17 -0.7792968,0.3066 l 0,-0.7578 c 0.2999257,-0.1158 0.5909385,-0.2014 0.8730468,-0.2578 0.2821084,-0.059 0.5569582,-0.09 0.8242188,-0.09 z m 7.197266,1.0235 1.46875,0.8476 -1.46875,0 0,-0.8476 z m -6.681641,1.5781 c -0.6622123,0 -1.1196177,0.077 -1.375,0.2285 -0.2553823,0.1515 -0.3828125,0.4082 -0.3828125,0.7735 0,0.291 0.095104,0.523 0.2851563,0.6953 0.1930215,0.1692 0.4535817,0.2539 0.7832031,0.2539 0.4543429,0 0.8185972,-0.1598 1.0917969,-0.4805 0.2761692,-0.3237 0.4140624,-0.7526 0.4140624,-1.2871 l 0,-0.1836 -0.8164062,0 z"
       id="text3349"
       inkscape:connector-curvature="0" />
  </g>
</svg>
