<?xml version="1.0" encoding="UTF-8" standalone="no"?>
<!-- Created with Inkscape (http://www.inkscape.org/) -->

<svg
   xmlns:osb="http://www.openswatchbook.org/uri/2009/osb"
   xmlns:dc="http://purl.org/dc/elements/1.1/"
   xmlns:cc="http://creativecommons.org/ns#"
   xmlns:rdf="http://www.w3.org/1999/02/22-rdf-syntax-ns#"
   xmlns:svg="http://www.w3.org/2000/svg"
   xmlns="http://www.w3.org/2000/svg"
   xmlns:sodipodi="http://sodipodi.sourceforge.net/DTD/sodipodi-0.dtd"
   xmlns:inkscape="http://www.inkscape.org/namespaces/inkscape"
   width="24"
   height="24"
   viewBox="0 0 24 24"
   id="svg2"
   version="1.1"
   inkscape:version="0.91 r13725"
   sodipodi:docname="delete_a+b.svg">
  <defs
     id="defs4">
    <linearGradient
       id="linearGradient4192"
       osb:paint="solid">
      <stop
         style="stop-color:#000000;stop-opacity:1;"
         offset="0"
         id="stop4194" />
    </linearGradient>
  </defs>
  <sodipodi:namedview
     id="base"
     pagecolor="#ffffff"
     bordercolor="#666666"
     borderopacity="1.0"
     inkscape:pageopacity="0.0"
     inkscape:pageshadow="2"
     inkscape:zoom="16"
     inkscape:cx="17.399356"
     inkscape:cy="9.5417563"
     inkscape:document-units="px"
     inkscape:current-layer="layer2"
     showgrid="false"
     inkscape:window-width="1280"
     inkscape:window-height="711"
     inkscape:window-x="0"
     inkscape:window-y="1"
     inkscape:window-maximized="1"
     units="px" />
  <metadata
     id="metadata7">
    <rdf:RDF>
      <cc:Work
         rdf:about="">
        <dc:format>image/svg+xml</dc:format>
        <dc:type
           rdf:resource="http://purl.org/dc/dcmitype/StillImage" />
        <dc:title></dc:title>
      </cc:Work>
    </rdf:RDF>
  </metadata>
  <g
     inkscape:groupmode="layer"
     id="layer2"
     inkscape:label="Content"
     transform="translate(0,-1028.3622)">
    <path
       style="font-style:normal;font-weight:normal;font-size:9.12249374px;line-height:125%;font-family:Sans;letter-spacing:0px;word-spacing:0px;fill:#767676;fill-opacity:1;stroke:none;stroke-width:1px;stroke-linecap:butt;stroke-linejoin:miter;stroke-opacity:1"
       d="m 2.9375,1035.3613 c -0.1815858,0 -0.3410844,0.066 -0.484375,0.1543 l 1.8417969,3.1914 0.3632812,0.6309 0.71875,1.2461 0.00195,0 0.3691407,0.6406 0.5351562,0.9258 0.9121094,1.582 0.8515625,1.4766 C 8.3134268,1045.044 8.5,1044.7616 8.5,1044.4238 l 0,-8.125 c 0,-0.5193 -0.418125,-0.9375 -0.9375,-0.9375 l -4.625,0 z m 5.109375,9.8477 c -0.063001,0.039 -0.1314047,0.07 -0.2011719,0.096 0.072894,-0.023 0.1373617,-0.056 0.2011719,-0.096 z m -0.2011719,0.096 c -0.090795,0.029 -0.1824811,0.057 -0.2832031,0.057 0.1017474,0 0.1942907,-0.023 0.2832031,-0.057 z m -5.3945312,-9.7891 c -0.1049818,0.065 -0.1919713,0.1478 -0.2636719,0.2481 0.073271,-0.097 0.1594596,-0.1834 0.2636719,-0.2481 z M 2.1875,1035.7637 c -0.028074,0.037 -0.053937,0.074 -0.076172,0.1152 0.02124,-0.042 0.049167,-0.077 0.076172,-0.1152 z m -0.076172,0.1152 c -0.018412,0.036 -0.035148,0.071 -0.048828,0.1094 0.014221,-0.037 0.029886,-0.074 0.048828,-0.1094 z M 2.0625,1035.9883 C 2.0258391,1036.085 2,1036.1876 2,1036.2988 c 0,-0.1103 0.027783,-0.2123 0.0625,-0.3105 z M 2,1036.7324 l 0,7.6914 c 0,0.5194 0.418125,0.9375 0.9375,0.9375 l 4.0449219,0 -1.0761719,-1.8652 c -0.06985,0.052 -0.1341148,0.1123 -0.2109375,0.1523 -0.2791388,0.1426 -0.6215302,0.2129 -1.0253906,0.2129 -0.5107646,0 -0.9178079,-0.1407 -1.2207031,-0.4258 C 3.1492929,1043.1475 3,1042.7625 3,1042.2812 c 0,-0.561 0.1863821,-0.9844 0.5605469,-1.2695 0.1922378,-0.1453 0.4347432,-0.253 0.7226562,-0.3242 l -0.6308593,-1.0937 c -0.096465,0.042 -0.1935682,0.083 -0.2871094,0.1347 l 0,-0.6308 L 2,1036.7324 Z m 14.537109,0.07 0,6.9297 0.824219,0 0,-0.748 c 0.172235,0.2969 0.389069,0.5185 0.650391,0.664 0.264291,0.1426 0.578103,0.2129 0.943359,0.2129 0.605791,0 1.097475,-0.2396 1.47461,-0.7207 0.380103,-0.481 0.570312,-1.1144 0.570312,-1.8984 0,-0.784 -0.190209,-1.4154 -0.570312,-1.8965 -0.377135,-0.4811 -0.868819,-0.7227 -1.47461,-0.7227 -0.365256,0 -0.679068,0.073 -0.943359,0.2188 -0.261322,0.1425 -0.478156,0.3632 -0.650391,0.6602 l 0,-2.6993 -0.824219,0 z m -5.02539,1.211 0,2.4804 -2.480469,0 0,0.7579 2.480469,0 0,2.4804 0.748047,0 0,-2.4804 2.482422,0 0,-0.7579 -2.482422,0 0,-2.4804 -0.748047,0 z m -6.0976565,0.6328 c 0.5445258,0.054 0.9709422,0.2297 1.265625,0.539 0.3563474,0.3742 0.5332031,0.941 0.5332031,1.7012 l 0,0.877 -0.8339844,-1.4453 c -0.035936,-0.2871 -0.1531619,-0.5182 -0.359375,-0.6875 -0.018812,-0.016 -0.042526,-0.026 -0.0625,-0.041 l -0.5429687,-0.9433 z m 13.3417965,0.664 c 0.433556,0 0.773058,0.1712 1.019532,0.5157 0.249443,0.3415 0.373047,0.8132 0.373047,1.416 0,0.6028 -0.123604,1.0774 -0.373047,1.4219 -0.246474,0.3415 -0.585976,0.5117 -1.019532,0.5117 -0.433556,0 -0.775947,-0.1702 -1.02539,-0.5117 -0.246474,-0.3445 -0.369141,-0.8191 -0.369141,-1.4219 0,-0.6028 0.122667,-1.0745 0.369141,-1.416 0.249443,-0.3445 0.591834,-0.5157 1.02539,-0.5157 z m -14.115234,1.9942 c -0.1792076,0.037 -0.3301615,0.085 -0.4375,0.1484 -0.2553823,0.1515 -0.3828125,0.4082 -0.3828125,0.7735 0,0.291 0.095104,0.523 0.2851563,0.6953 0.1930215,0.1692 0.4535817,0.2539 0.7832031,0.2539 0.2767822,0 0.5150522,-0.066 0.7246093,-0.1856 l -0.9726562,-1.6855 z"
       id="text3349"
       inkscape:connector-curvature="0" />
  </g>
</svg>
